<svg xmlns="http://www.w3.org/2000/svg" viewBox="0 0 1330.075 186.3249"><defs><style>.cls-1{fill:#655d5d;}</style></defs><g id="圖層_1" data-name="圖層 1"><path class="cls-1" d="M1112.3459,185.15H1085.883l-39.4638-99.8912c-8.0174-2.7725-13.3932-6.0846-16.12-10.0126l2.403-19.7159h55.3444l2.403,19.7159c-2.0793,2.6954-5.53,5.2376-10.3433,7.3943l12.9927,38.739a133.25,133.25,0,0,1,6.2539,23.799l.4851,3.5425h3.3657a155.9094,155.9094,0,0,1,6.739-26.879l12.7541-37.8928c-5.9382-2.3871-10.1047-5.3138-12.5153-8.703l2.4106-19.7159h52.9338l2.4031,19.7159c-2.8882,3.928-8.1794,7.24-15.8811,10.0126Z"/><path class="cls-1" d="M969.3173,55.453a115.5351,115.5351,0,0,1,26.4247-3.3122c8.133,0,14.9874.2313,20.5789.77V153.4187c6.6081,2.5412,11.2678,5.3908,13.9787,8.6259l-2.5417,19.3314H969.3173l-2.5417-19.3314c2.3723-3.2351,7.0241-6.0847,13.9712-8.6259V83.41a33.4372,33.4372,0,0,1-13.9712-8.5488Zm28.712-17.406q-21.0948,0-21.0951-18.9459C976.9342,6.393,983.9661,0,998.0293,0c14.225,0,21.3415,6.393,21.3415,19.1011Q1019.3708,38.0461,998.0293,38.047Z"/><path class="cls-1" d="M895.2729,3.3122A110.4915,110.4915,0,0,1,921.5127,0c8.3486,0,15.4881.2313,21.4338.7709V152.7258a45.759,45.759,0,0,1,13.2393,4.3125v19.9481c-9.6272,5.3908-21.8266,8.1634-36.5985,8.1634a14.8548,14.8548,0,0,1-4.8136-4.6209,13.4437,13.4437,0,0,1-2.41-6.3159,45.3809,45.3809,0,0,1-13.7246,7.8559,49.3676,49.3676,0,0,1-16.6127,3.0809q-26.0046,0-37.8-14.7106c-7.7017-10.0117-11.56-26.1851-11.56-48.6745q0-38.24,17.8217-53.6808Q866.13,54.4513,889.0114,54.4517a82.7533,82.7533,0,0,1,20.2248,2.5412V31.8853c-7.386-2.1558-12.8464-5.2367-16.3739-9.0876Zm-8.1869,155.96c9.15,0,16.5279-2.85,22.15-8.6259V82.7935a83.771,83.771,0,0,0-20.9487-2.5412q-11.079,0-16.1351,10.3971c-3.204,6.7776-4.8136,16.9444-4.8136,30.6528q0,20.217,4.8136,29.1127C875.364,156.3454,880.3392,159.2721,887.086,159.2721Z"/><path class="cls-1" d="M640.962,54.8362a107.755,107.755,0,0,1,23.7137-3.0028q10.5358,0,17.4751.4616V65.003a44.6393,44.6393,0,0,1,15.8117-8.6259,56.96,56.96,0,0,1,19.1542-3.5424c15.6422,0,26.5785,3.8508,32.8094,11.6287q9.5768,11.6682,9.5808,40.2808v48.5974q9.3347,3.8133,13.17,8.5488l-2.3953,19.4856H715.199L712.8037,161.89q3.3616-4.7355,13.17-8.5488V103.2033q0-13.6313-4.3052-18.2531c-2.7187-3.1579-7.6632-4.775-14.849-4.775S692.448,82.8706,685.27,88.2624v65.0792q9.3347,3.8133,13.17,8.5488l-2.3953,19.4856H640.962L638.5667,161.89q3.362-4.7355,13.1777-8.5488V82.9477a30.0511,30.0511,0,0,1-13.1777-8.6259Z"/><path class="cls-1" d="M579.0709,185.15q-28.3616,0-42.7753-16.0964-14.1866-16.0582-14.1867-46.75,0-18.5994,4.9678-31.8843,4.9558-13.517,13.47-20.7952A57.6016,57.6016,0,0,1,579.0709,55.53q21.9847,0,33.5641,12.0142c7.8789,7.933,11.8222,22.1039,11.8222,42.7449,0,12.0142-5.5991,18.0989-16.782,18.0989H556.3817c.6315,10.5513,3.15,17.9447,7.5631,22.3352,4.5747,4.3125,11.7373,6.5463,21.5109,6.5463a59.1131,59.1131,0,0,0,15.3649-2.0026c4.8829-1.3858,8.4256-2.6954,10.6361-4.0821l3.304-2.0025,7.0934,20.1023a59.754,59.754,0,0,1-4.2514,4.5437c-1.7329,1.6942-6.3077,4.0051-13.709,7.0089A67.4528,67.4528,0,0,1,579.0709,185.15Zm14.8953-79.174a64.3341,64.3341,0,0,0,.47-8.4717c0-3.3883-1.2629-6.9317-3.7816-10.5513q-3.7776-5.7763-13.2392-5.7763-9.2073,0-14.1789,6.0075-4.9675,6.0076-6.6156,20.3327Z"/><path class="cls-1" d="M462.6131,185.15q-28.3615,0-42.7831-16.0964-14.1748-16.0582-14.1789-46.75,0-18.5994,4.96-31.8843,4.9675-13.517,13.4781-20.7952A57.5874,57.5874,0,0,1,462.6131,55.53q21.9848,0,33.5641,12.0142c7.8789,7.933,11.8144,22.1039,11.8144,42.7449,0,12.0142-5.5913,18.0989-16.7819,18.0989H439.9239c.6316,10.5513,3.15,17.9447,7.5631,22.3352,4.567,4.3125,11.7373,6.5463,21.5031,6.5463a59.0679,59.0679,0,0,0,15.3649-2.0026c4.8907-1.3858,8.4334-2.6954,10.6362-4.0821l3.3117-2.0025,7.0934,20.1023a58.5819,58.5819,0,0,1-4.2591,4.5437c-1.7329,1.6942-6.3,4.0051-13.7091,7.0089A67.41,67.41,0,0,1,462.6131,185.15Zm14.8875-79.174a64.1642,64.1642,0,0,0,.4776-8.4717c0-3.3883-1.2631-6.9317-3.7818-10.5513q-3.7888-5.7763-13.2392-5.7763-9.219,0-14.1789,6.0075-4.9675,6.0076-6.6234,20.3327Z"/><path class="cls-1" d="M383.5935,85.9515q-18.5537,0-25.6313,7.3934V151.262q19.7664,3.8133,27.0947,10.6284l-2.4416,19.4856H312.8069L310.3656,161.89q3.4194-4.7355,13.4239-8.5488V82.9477a30.6965,30.6965,0,0,1-13.4239-8.6259l2.4413-19.4856a111.8465,111.8465,0,0,1,24.16-3.0028q10.7438,0,17.8217.4616V68.2381a42.263,42.263,0,0,1,14.4024-11.091c5.8532-3.0808,11.1444-4.5437,15.8656-4.5437,4.8829,0,8.2176.3845,10.0044,1.2325L394.33,86.7215A76.088,76.088,0,0,0,383.5935,85.9515Z"/><path class="cls-1" d="M232.524,35.8132c-10.89,0-19.3774,4.39-25.4619,13.0935q-8.8953,13.17-8.8877,45.5936,0,62.1529,32.663,62.1535a58.6344,58.6344,0,0,0,23.0591-4.2364v-28.496c-7.363-2.4651-12.4076-5.6221-15.1263-9.32l2.3952-19.87h56.2073l2.403,19.87q-3.1194,4.0446-11.2908,7.8559v46.5187a72.5646,72.5646,0,0,1-25.4619,12.631c-9.1265,2.31-20.5714,3.5425-34.3421,3.5425-22.9049,0-39.7176-6.8547-50.4462-20.41q-16.0927-20.6781-16.089-66.6963c0-30.8839,6.3232-53.7588,18.9694-68.4684q19.2235-22.1815,52.3641-22.181,33.3868,0,54.5281,15.8651v5.7763a107.3237,107.3237,0,0,1-1.6788,14.6334,64.122,64.122,0,0,1-4.8061,16.8673H259.4263c-2.4031-4.6989-4.0049-11.7068-4.8059-20.9494A65.1416,65.1416,0,0,0,232.524,35.8132Z"/><path class="cls-1" d="M9.2431,76.35,57.4693,28.1234a21.0385,21.0385,0,0,1,14.8765-6.1621H96.504a10.9576,10.9576,0,0,1,10.9576,10.9576V57.0772A21.039,21.039,0,0,1,101.3,71.9537L96.9036,76.35a31.5578,31.5578,0,0,0,0,44.63l15.3535,15.3535a21.0385,21.0385,0,0,1,6.1621,14.8765v24.5965A10.5193,10.5193,0,0,1,107.9,186.3248l-24.5966,0a21.0387,21.0387,0,0,1-14.8765-6.1621L9.2431,120.9791A31.5578,31.5578,0,0,1,9.2431,76.35Z"/><path class="cls-1" d="M1320.832,76.35l-48.2262-48.2262a21.0387,21.0387,0,0,0-14.8765-6.1621H1233.571a10.9575,10.9575,0,0,0-10.9575,10.9576V57.0772a21.0386,21.0386,0,0,0,6.162,14.8765l4.3959,4.3959a31.5578,31.5578,0,0,1,0,44.63l-15.3535,15.3535a21.0384,21.0384,0,0,0-6.162,14.8765v24.5965a10.5192,10.5192,0,0,0,10.5192,10.5192l24.5966,0a21.0385,21.0385,0,0,0,14.8765-6.1621l59.1838-59.1837A31.5578,31.5578,0,0,0,1320.832,76.35Z"/></g></svg>