<svg xmlns="http://www.w3.org/2000/svg" viewBox="0 0 200 200"><defs><style>.cls-1{fill:none;}.cls-2{fill:#2d8c83;}.cls-3{fill:#5fbf4f;}</style></defs><g id="圖層_1" data-name="圖層 1"><rect class="cls-1" width="200" height="200"/><path class="cls-2" d="M170.0254,86.9365c-.029-.17-.0545-.3419-.0848-.512-.0109-.061-.021-.1224-.0327-.1832-.013-.0721-.0281-.1436-.0414-.2158a14.76,14.76,0,0,0-3.5614-6.9419l0,0a14.76,14.76,0,0,0-6.9418-3.5616c-.0721-.0132-.1436-.0283-.2159-.0413-.0607-.0118-.1222-.0217-.1832-.0327-.17-.03-.3415-.0558-.512-.0849a77.4708,77.4708,0,0,0-26.042,0c-.1705.0291-.3423.0547-.5123.0849-.061.011-.1223.0209-.183.0327-.0722.013-.1437.0281-.2159.0413A14.8058,14.8058,0,0,0,119.7344,90.01v15.8775a19.7665,19.7665,0,0,1-19.7666,19.7665v0H92.0612a11.86,11.86,0,0,0-11.86,11.86v15.5585a11.3889,11.3889,0,0,0,9.0495,11.1447c.0556.01.1106.0218.166.0318.0468.009.0941.0167.141.0252.1308.0232.2628.0429.3938.0652a59.5919,59.5919,0,0,0,20.0325,0c.1311-.0223.2631-.042.3939-.0652.047-.0085.0941-.0162.1409-.0252.0556-.01.1105-.0216.166-.0318a11.3888,11.3888,0,0,0,9.0495-11.1447v-7.6519a19.7666,19.7666,0,0,1,19.7666-19.7665h0l15.8775,0a14.8054,14.8054,0,0,0,14.488-11.7645c.0133-.0721.0284-.1435.0414-.2158.0117-.0607.0218-.122.0327-.1831.03-.17.0558-.3417.0848-.5121a77.4719,77.4719,0,0,0,0-26.0422Z"/><path class="cls-3" d="M68.4124,34.8193H63.99c-19.2225-.0365-27.48-.0585-31.2978,3.76-.009.0089-.0167.0192-.0256.0283h0c-.0091.0089-.0194.0166-.0284.0256-3.8179,3.818-3.7959,12.0753-3.7594,31.2979v4.422a39.5053,39.5053,0,0,0,39.5332,39.5331h31.6265a7.9068,7.9068,0,0,0,7.9067-7.9067V74.3525A39.5053,39.5053,0,0,0,68.4124,34.8193Z"/></g></svg>