<svg width="510" height="228" viewBox="0 0 510 228" fill="none" xmlns="http://www.w3.org/2000/svg">
<path d="M341.174 64.6872C341.138 64.4758 341.106 64.2628 341.069 64.0518C341.055 63.976 341.043 63.8998 341.028 63.8244C341.012 63.7344 340.993 63.6462 340.977 63.5566C340.303 60.3405 338.776 57.3648 336.557 54.9415C334.134 52.7221 331.158 51.1954 327.942 50.5215C327.852 50.5051 327.764 50.4862 327.674 50.4701C327.599 50.4556 327.522 50.4432 327.447 50.4296C327.236 50.3921 327.023 50.3603 326.811 50.3242C316.116 48.5006 305.188 48.5006 294.492 50.3242C294.281 50.3603 294.068 50.3921 293.857 50.4296C293.781 50.4432 293.705 50.4556 293.63 50.4701C293.54 50.4862 293.451 50.5051 293.362 50.5215C289.234 51.3878 285.531 53.6475 282.872 56.9215C280.214 60.1954 278.762 64.2842 278.762 68.5015V88.206C278.762 91.4275 278.127 94.6174 276.895 97.5936C275.662 100.57 273.855 103.274 271.577 105.552C269.299 107.83 266.595 109.637 263.619 110.87C260.642 112.102 257.452 112.737 254.231 112.737H244.419C240.515 112.737 236.771 114.288 234.011 117.048C231.251 119.808 229.7 123.552 229.7 127.455V146.764C229.701 150.008 230.817 153.153 232.862 155.672C234.907 158.19 237.756 159.928 240.931 160.595C241 160.607 241.068 160.622 241.137 160.634C241.195 160.645 241.254 160.655 241.312 160.665C241.474 160.694 241.638 160.719 241.801 160.746C250.028 162.149 258.434 162.149 266.661 160.746C266.824 160.719 266.988 160.694 267.15 160.665C267.209 160.655 267.267 160.645 267.325 160.634C267.394 160.622 267.462 160.607 267.531 160.595C270.706 159.928 273.555 158.19 275.6 155.672C277.645 153.153 278.761 150.008 278.762 146.764V137.268C278.762 130.762 281.346 124.522 285.947 119.922C290.547 115.321 296.787 112.737 303.293 112.737H322.997C327.214 112.736 331.303 111.285 334.577 108.627C337.851 105.968 340.111 102.264 340.977 98.1368C340.993 98.0474 341.012 97.9587 341.028 97.869C341.043 97.7937 341.055 97.7175 341.069 97.6418C341.107 97.4308 341.138 97.2178 341.174 97.0062C342.998 86.3105 342.998 75.383 341.174 64.6872Z" fill="#2D8C83"/>
<path d="M215.07 0.0083799H209.582C185.727 -0.0370201 175.479 -0.0643201 170.741 4.67388C170.73 4.68508 170.72 4.69778 170.709 4.70908C170.698 4.72018 170.685 4.72968 170.674 4.74088C165.936 9.47908 165.963 19.7266 166.008 43.5823V49.07C166.004 55.5141 167.27 61.8959 169.734 67.8504C172.198 73.8049 175.811 79.2152 180.368 83.7719C184.925 88.3286 190.335 91.9423 196.29 94.4062C202.244 96.8702 208.626 98.1361 215.07 98.1316H254.319C256.922 98.1316 259.418 97.0978 261.258 95.2576C263.098 93.4174 264.132 90.9216 264.132 88.3192V49.07C264.136 42.6258 262.87 36.244 260.406 30.2895C257.942 24.3351 254.329 18.9247 249.772 14.368C245.215 9.81135 239.805 6.19767 233.851 3.73371C227.896 1.26974 221.514 0.00383044 215.07 0.0083799Z" fill="#5FBF4F"/>
<path d="M431.116 227.933H420.697L405.159 188.585C402.003 187.492 399.886 186.188 398.812 184.641L399.759 176.874H421.549L422.495 184.641C421.393 185.926 419.995 186.926 418.423 187.553L423.538 202.813C424.646 205.855 425.471 208.994 426.001 212.188L426.192 213.583H427.517C428.085 209.982 428.973 206.439 430.17 202.995L435.192 188.069C433.259 187.414 431.551 186.225 430.264 184.641L431.213 176.874H452.054L453.001 184.641C451.863 186.188 449.78 187.492 446.748 188.585L431.116 227.933Z" fill="#655D5D"/>
<path d="M374.803 176.844C378.209 176.009 381.7 175.571 385.206 175.539C388.409 175.539 391.107 175.63 393.309 175.843V215.434C395.911 216.435 397.745 217.558 398.813 218.832L397.812 226.447H374.803L373.802 218.832C374.736 217.558 376.567 216.435 379.303 215.434V187.857C377.218 187.208 375.328 186.051 373.802 184.489L374.803 176.844ZM386.107 169.987C380.57 169.987 377.802 167.5 377.801 162.524C377.801 157.519 380.57 155 386.107 155C391.708 155 394.51 157.519 394.51 162.524C394.51 167.499 391.709 169.987 386.107 169.987Z" fill="#655D5D"/>
<path d="M345.649 156.305C349.028 155.458 352.497 155.019 355.98 155C359.267 155 362.078 155.091 364.419 155.304V215.161C366.233 215.458 367.991 216.031 369.632 216.86V224.718C365.841 226.842 361.038 227.934 355.222 227.934C354.461 227.479 353.812 226.856 353.327 226.113C352.804 225.378 352.477 224.522 352.378 223.625C350.772 224.965 348.943 226.013 346.974 226.72C344.88 227.497 342.667 227.908 340.433 227.933C333.608 227.933 328.647 226.002 325.551 222.139C322.518 218.195 320.999 211.824 320.999 202.965C320.999 192.923 323.338 185.874 328.016 181.819C332.227 178.201 337.636 176.286 343.185 176.449C345.87 176.453 348.545 176.79 351.147 177.45V167.56C348.714 166.973 346.486 165.735 344.701 163.98L345.649 156.305ZM342.426 217.74C344.035 217.81 345.642 217.544 347.144 216.959C348.645 216.374 350.008 215.483 351.147 214.342V187.613C348.451 186.933 345.679 186.597 342.899 186.613C341.549 186.567 340.218 186.935 339.082 187.667C337.947 188.399 337.062 189.46 336.546 190.708C335.284 193.378 334.651 197.383 334.651 202.783C334.651 208.092 335.282 211.915 336.546 214.251C337.08 215.342 337.921 216.253 338.966 216.873C340.01 217.492 341.213 217.794 342.426 217.74Z" fill="#655D5D"/>
<path d="M245.522 176.601C248.581 175.862 251.712 175.465 254.859 175.418C257.624 175.418 259.917 175.479 261.739 175.6V180.606C263.562 179.062 265.68 177.906 267.965 177.208C270.38 176.313 272.931 175.841 275.506 175.813C281.665 175.813 285.971 177.33 288.424 180.393C290.938 183.458 292.195 188.747 292.196 196.261V215.404C294.173 216.088 295.953 217.244 297.382 218.771L296.439 226.447H274.751L273.808 218.771C274.69 217.528 276.419 216.405 278.993 215.404V195.654C278.993 192.074 278.428 189.677 277.298 188.464C276.228 187.22 274.281 186.583 271.451 186.583C268.35 186.681 265.367 187.801 262.967 189.768V215.404C264.943 216.088 266.723 217.244 268.152 218.772L267.209 226.447H245.522L244.579 218.772C245.462 217.528 247.191 216.406 249.767 215.404V187.675C247.767 187.024 245.976 185.851 244.579 184.277L245.522 176.601Z" fill="#655D5D"/>
<path d="M221.153 227.934C213.708 227.934 208.095 225.82 204.311 221.593C200.587 217.376 198.726 211.237 198.726 203.177C198.626 198.908 199.288 194.655 200.681 190.618C201.714 187.476 203.541 184.654 205.985 182.426C210.189 178.776 215.587 176.8 221.153 176.874C226.923 176.874 231.328 178.452 234.368 181.607C237.47 184.732 239.022 190.314 239.022 198.445C239.022 203.177 236.818 205.574 232.415 205.574H212.219C212.468 209.731 213.46 212.643 215.197 214.373C216.998 216.071 219.818 216.951 223.666 216.951C225.709 216.955 227.743 216.69 229.716 216.162C231.176 215.81 232.583 215.269 233.904 214.554L235.204 213.765L237.997 221.684C237.471 222.309 236.912 222.907 236.324 223.474C235.641 224.141 233.84 225.052 230.926 226.235C227.804 227.41 224.488 227.986 221.153 227.934ZM227.017 196.746C227.152 195.639 227.214 194.524 227.202 193.409C227.145 191.903 226.625 190.452 225.713 189.253C224.722 187.736 222.984 186.977 220.501 186.977C219.451 186.916 218.401 187.097 217.433 187.507C216.465 187.918 215.604 188.546 214.918 189.344C213.614 190.921 212.746 193.591 212.314 197.353L227.017 196.746Z" fill="#655D5D"/>
<path d="M175.3 227.934C167.856 227.934 162.241 225.82 158.455 221.593C154.735 217.376 152.874 211.237 152.873 203.178C152.774 198.908 153.435 194.655 154.826 190.618C155.861 187.476 157.688 184.654 160.132 182.426C164.336 178.776 169.734 176.8 175.3 176.874C181.071 176.874 185.476 178.452 188.515 181.607C191.617 184.732 193.167 190.314 193.167 198.445C193.167 203.178 190.965 205.574 186.559 205.574H166.367C166.616 209.731 167.607 212.643 169.345 214.373C171.143 216.071 173.966 216.951 177.811 216.951C179.853 216.955 181.887 216.69 183.86 216.162C185.32 215.811 186.728 215.27 188.048 214.554L189.352 213.766L192.145 221.684C191.618 222.31 191.058 222.908 190.468 223.474C189.786 224.141 187.988 225.052 185.07 226.235C181.949 227.41 178.635 227.987 175.3 227.934ZM181.162 196.746C181.298 195.639 181.361 194.524 181.35 193.409C181.292 191.903 180.772 190.452 179.861 189.252C178.866 187.735 177.129 186.977 174.648 186.977C173.598 186.915 172.548 187.096 171.58 187.506C170.612 187.917 169.751 188.545 169.066 189.343C167.762 190.921 166.892 193.591 166.458 197.353L181.162 196.746Z" fill="#655D5D"/>
<path d="M144.19 188.858C139.32 188.858 135.956 189.829 134.098 191.77V214.585C139.287 215.586 142.843 216.982 144.766 218.771L143.805 226.447H116.32L115.358 218.771C116.256 217.528 118.018 216.405 120.644 215.404V187.674C118.613 187.028 116.79 185.856 115.358 184.277L116.32 176.601C119.438 175.861 122.628 175.465 125.832 175.418C128.652 175.418 130.991 175.479 132.849 175.6V181.88C134.4 180.03 136.335 178.539 138.519 177.511C140.426 176.418 142.57 175.803 144.766 175.721C146.098 175.631 147.435 175.796 148.705 176.207L148.417 189.161C147.017 188.96 145.604 188.859 144.19 188.858Z" fill="#655D5D"/>
<path d="M84.7099 169.107C82.7378 169.04 80.7812 169.478 79.0264 170.381C77.2716 171.284 75.777 172.621 74.6849 174.265C72.3502 177.724 71.1837 183.71 71.1857 192.225C71.1857 208.547 75.4724 216.708 84.0459 216.708C87.1536 216.769 90.2416 216.202 93.1248 215.04V203.815C90.2257 202.844 88.2396 201.6 87.1691 200.144L88.1123 192.317H110.242L111.188 200.144C109.961 201.5 108.441 202.559 106.743 203.238V221.563C103.762 223.866 100.355 225.557 96.7181 226.538C92.2841 227.55 87.7435 228.019 83.1965 227.934C74.1782 227.934 67.5587 225.233 63.3346 219.894C59.1105 214.464 56.999 205.706 57 193.621C57 181.456 59.4896 172.445 64.4687 166.651C69.5145 160.825 76.3868 157.913 85.0856 157.913C93.8491 157.913 101.005 159.996 106.555 164.163V166.438C106.466 168.372 106.246 170.298 105.894 172.202C105.57 174.493 104.933 176.729 104.001 178.847H95.3019C94.3558 176.996 93.7251 174.235 93.4098 170.594C90.6175 169.599 87.6739 169.096 84.7099 169.107Z" fill="#655D5D"/>
<path d="M3.51215 185.178L21.8385 166.399C23.3379 164.863 25.3714 164 27.4917 164H36.6721C37.7764 164 38.8355 164.45 39.6164 165.25C40.3973 166.05 40.836 167.135 40.836 168.267V177.673C40.836 179.845 39.9937 181.929 38.4944 183.465L36.8239 185.178C34.575 187.482 33.3116 190.608 33.3116 193.867C33.3116 197.126 34.575 200.251 36.8239 202.556L42.6584 208.534C44.1577 210.071 45 212.154 45 214.327V223.904C45 224.442 44.8966 224.974 44.6957 225.471C44.4948 225.968 44.2004 226.42 43.8292 226.8C43.458 227.181 43.0173 227.482 42.5323 227.688C42.0473 227.894 41.5275 228 41.0025 228H31.6557C29.5354 228 27.5019 227.137 26.0025 225.601L3.51215 202.555C1.26335 200.251 0 197.126 0 193.867C0 190.608 1.26335 187.482 3.51215 185.178Z" fill="#655D5D"/>
<path d="M506.488 185.178L488.161 166.399C486.662 164.863 484.629 164 482.508 164H473.328C472.224 164 471.164 164.45 470.384 165.25C469.603 166.05 469.164 167.135 469.164 168.267V177.673C469.164 179.845 470.006 181.929 471.506 183.465L473.176 185.177C475.425 187.482 476.688 190.607 476.688 193.866C476.688 197.125 475.425 200.251 473.176 202.555L467.342 208.534C465.842 210.07 465 212.153 465 214.326V223.904C465 224.99 465.421 226.032 466.171 226.8C466.92 227.568 467.937 228 468.997 228H478.344C480.465 228 482.498 227.137 483.998 225.601L506.488 202.555C508.737 200.251 510 197.126 510 193.867C510 190.608 508.737 187.482 506.488 185.178Z" fill="#655D5D"/>
</svg>
