<svg xmlns="http://www.w3.org/2000/svg" viewBox="0 0 1330.075 588.163"><defs><style>.cls-1{fill:#2d8c83;}.cls-2{fill:#5fbf4f;}.cls-3{fill:#655d5d;}</style></defs><g id="圖層_1" data-name="圖層 1"><path class="cls-1" d="M886.44,164.8108c-.0918-.5385-.1723-1.0813-.268-1.6189-.0347-.193-.0664-.3872-.1035-.5792-.0411-.2283-.0889-.4542-.1309-.6824a46.67,46.67,0,0,0-11.2607-21.95l0,0A46.6671,46.6671,0,0,0,852.7275,128.72c-.2281-.0418-.4541-.09-.6827-.1308-.1919-.0372-.3862-.0686-.5791-.1034-.5376-.0954-1.08-.1764-1.6191-.2683a244.9575,244.9575,0,0,0-82.3423,0c-.5391.0919-1.082.1729-1.62.2683-.1929.0348-.3867.0662-.5786.1034-.2285.041-.4546.089-.6827.1308a46.8138,46.8138,0,0,0-37.1982,45.81v50.2029a62.5,62.5,0,0,1-62.5,62.5v0h-25a37.5,37.5,0,0,0-37.5,37.5V373.927a36.0107,36.0107,0,0,0,28.6138,35.2384c.1758.0321.35.069.5249.1006.1479.0285.2973.0528.4458.0795.4136.0734.831.1357,1.2451.2064a188.4279,188.4279,0,0,0,63.3408,0c.4146-.0707.832-.133,1.2456-.2064.1485-.0267.2974-.051.4453-.0795.1758-.0316.35-.0685.5249-.1006a36.01,36.01,0,0,0,28.6138-35.2384V349.7325a62.5,62.5,0,0,1,62.5-62.5h0l50.2031,0a46.8133,46.8133,0,0,0,45.81-37.1981c.042-.2279.09-.4539.1309-.6824.0371-.192.0688-.3859.1035-.5789.0957-.5377.1762-1.08.268-1.6193a244.9466,244.9466,0,0,0,0-82.3428Z"/><path class="cls-2" d="M565.15.0213H551.1682c-60.78-.1156-86.8887-.1851-98.9607,11.8869-.0286.0285-.0528.061-.0811.09h0c-.0286.0284-.0613.0525-.09.0811C439.9648,24.1509,440.0344,50.26,440.15,111.04v13.9819a124.9119,124.9119,0,0,0,125,125l100,0a25.0006,25.0006,0,0,0,25-25v-100A124.912,124.912,0,0,0,565.15.0213Z"/><path class="cls-3" d="M1112.3459,586.9879H1085.883l-39.4638-99.8911c-8.0174-2.7725-13.3932-6.0847-16.12-10.0126l2.403-19.716h55.3444l2.403,19.716c-2.0793,2.6954-5.53,5.2376-10.3433,7.3943l12.9927,38.7389a133.2543,133.2543,0,0,1,6.2539,23.799l.4851,3.5425h3.3657a155.9107,155.9107,0,0,1,6.739-26.8789l12.7541-37.8928c-5.9382-2.3871-10.1047-5.3138-12.5153-8.703l2.4106-19.716h52.9338l2.4031,19.716c-2.8882,3.9279-8.1794,7.24-15.8811,10.0126Z"/><path class="cls-3" d="M969.3173,457.2912a115.5351,115.5351,0,0,1,26.4247-3.3122c8.133,0,14.9874.2313,20.5789.77V555.2569c6.6081,2.5412,11.2678,5.3908,13.9787,8.6259l-2.5417,19.3314H969.3173l-2.5417-19.3314c2.3723-3.2351,7.0241-6.0847,13.9712-8.6259V485.2485A33.4392,33.4392,0,0,1,966.7756,476.7Zm28.712-17.406q-21.0948,0-21.0951-18.946c0-12.708,7.0319-19.101,21.0951-19.101,14.225,0,21.3415,6.393,21.3415,19.101Q1019.3708,439.8842,998.0293,439.8852Z"/><path class="cls-3" d="M895.2729,405.15a110.4912,110.4912,0,0,1,26.24-3.3121c8.3486,0,15.4881.2313,21.4338.7709V554.564a45.7559,45.7559,0,0,1,13.2393,4.3124v19.9482c-9.6272,5.3908-21.8266,8.1633-36.5985,8.1633a14.8533,14.8533,0,0,1-4.8136-4.6208,13.4436,13.4436,0,0,1-2.41-6.316,45.3789,45.3789,0,0,1-13.7246,7.856,49.3674,49.3674,0,0,1-16.6127,3.0808q-26.0046,0-37.8-14.7105c-7.7017-10.0117-11.56-26.1851-11.56-48.6745q0-38.24,17.8217-53.6808Q866.13,456.2894,889.0114,456.29a82.7533,82.7533,0,0,1,20.2248,2.5412V433.7234c-7.386-2.1557-12.8464-5.2366-16.3739-9.0875ZM887.086,561.11c9.15,0,16.5279-2.85,22.15-8.6259V484.6317a83.771,83.771,0,0,0-20.9487-2.5412q-11.079,0-16.1351,10.3971c-3.204,6.7776-4.8136,16.9444-4.8136,30.6527q0,20.2171,4.8136,29.1128C875.364,558.1836,880.3392,561.11,887.086,561.11Z"/><path class="cls-3" d="M640.962,456.6744a107.7489,107.7489,0,0,1,23.7137-3.0028q10.5358,0,17.4751.4616v12.708a44.6362,44.6362,0,0,1,15.8117-8.6259,56.958,56.958,0,0,1,19.1542-3.5425c15.6422,0,26.5785,3.8509,32.8094,11.6288q9.5768,11.6682,9.5808,40.2808V555.18q9.3347,3.8132,13.17,8.5488l-2.3953,19.4856H715.199l-2.3953-19.4856q3.3616-4.7356,13.17-8.5488V505.0415q0-13.6312-4.3052-18.2531c-2.7187-3.1579-7.6632-4.775-14.849-4.775s-14.3714,2.6954-21.5495,8.0872V555.18q9.3347,3.8132,13.17,8.5488l-2.3953,19.4856H640.962l-2.3953-19.4856q3.362-4.7356,13.1777-8.5488V484.7859a30.0511,30.0511,0,0,1-13.1777-8.6259Z"/><path class="cls-3" d="M579.0709,586.9879q-28.3616,0-42.7753-16.0963-14.1866-16.0583-14.1867-46.75,0-18.6,4.9678-31.8843,4.9558-13.5171,13.47-20.7952a57.6017,57.6017,0,0,1,38.5239-14.0939q21.9847,0,33.5641,12.0142c7.8789,7.9331,11.8222,22.104,11.8222,42.745,0,12.0142-5.5991,18.0989-16.782,18.0989H556.3817c.6315,10.5513,3.15,17.9446,7.5631,22.3351,4.5747,4.3125,11.7373,6.5463,21.5109,6.5463a59.1174,59.1174,0,0,0,15.3649-2.0025c4.8829-1.3858,8.4256-2.6954,10.6361-4.0821l3.304-2.0026,7.0934,20.1024a59.754,59.754,0,0,1-4.2514,4.5437c-1.7329,1.6942-6.3077,4.0051-13.709,7.0089A67.4529,67.4529,0,0,1,579.0709,586.9879Zm14.8953-79.1739a64.3362,64.3362,0,0,0,.47-8.4717c0-3.3883-1.2629-6.9318-3.7816-10.5514q-3.7776-5.7762-13.2392-5.7762-9.2073,0-14.1789,6.0075-4.9675,6.0077-6.6156,20.3327Z"/><path class="cls-3" d="M462.6131,586.9879q-28.3615,0-42.7831-16.0963-14.1748-16.0583-14.1789-46.75,0-18.6,4.96-31.8843,4.9675-13.5171,13.4781-20.7952a57.5875,57.5875,0,0,1,38.5239-14.0939q21.9848,0,33.5641,12.0142c7.8789,7.9331,11.8144,22.104,11.8144,42.745,0,12.0142-5.5913,18.0989-16.7819,18.0989H439.9239c.6316,10.5513,3.15,17.9446,7.5631,22.3351,4.567,4.3125,11.7373,6.5463,21.5031,6.5463a59.0722,59.0722,0,0,0,15.3649-2.0025c4.8907-1.3858,8.4334-2.6954,10.6362-4.0821l3.3117-2.0026,7.0934,20.1024a58.5819,58.5819,0,0,1-4.2591,4.5437c-1.7329,1.6942-6.3,4.0051-13.7091,7.0089A67.41,67.41,0,0,1,462.6131,586.9879Zm14.8875-79.1739a64.1663,64.1663,0,0,0,.4776-8.4717c0-3.3883-1.2631-6.9318-3.7818-10.5514q-3.7888-5.7762-13.2392-5.7762-9.219,0-14.1789,6.0075-4.9675,6.0077-6.6234,20.3327Z"/><path class="cls-3" d="M383.5935,487.79q-18.5537,0-25.6313,7.3933V553.1q19.7664,3.8132,27.0947,10.6284l-2.4416,19.4856H312.8069l-2.4413-19.4856q3.4194-4.7356,13.4239-8.5488V484.7859a30.6965,30.6965,0,0,1-13.4239-8.6259l2.4413-19.4856a111.84,111.84,0,0,1,24.16-3.0028q10.7438,0,17.8217.4616v15.9431a42.263,42.263,0,0,1,14.4024-11.091c5.8532-3.0809,11.1444-4.5437,15.8656-4.5437,4.8829,0,8.2176.3845,10.0044,1.2325L394.33,488.56A76.088,76.088,0,0,0,383.5935,487.79Z"/><path class="cls-3" d="M232.524,437.6514c-10.89,0-19.3774,4.39-25.4619,13.0935q-8.8953,13.17-8.8877,45.5936,0,62.153,32.663,62.1534a58.6345,58.6345,0,0,0,23.0591-4.2363V525.76c-7.363-2.4651-12.4076-5.6221-15.1263-9.32l2.3952-19.87h56.2073l2.403,19.87q-3.1194,4.0445-11.2908,7.8559v46.5187a72.5626,72.5626,0,0,1-25.4619,12.6309c-9.1265,2.31-20.5714,3.5425-34.3421,3.5425-22.9049,0-39.7176-6.8546-50.4462-20.41Q162.142,545.9,162.1457,499.8819c0-30.884,6.3232-53.7588,18.9694-68.4684q19.2235-22.1815,52.3641-22.181,33.3868,0,54.5281,15.865v5.7763a107.3246,107.3246,0,0,1-1.6788,14.6335,64.1242,64.1242,0,0,1-4.8061,16.8673H259.4263c-2.4031-4.6989-4.0049-11.7068-4.8059-20.9494A65.1416,65.1416,0,0,0,232.524,437.6514Z"/><path class="cls-3" d="M9.2431,478.1878l48.2262-48.2262A21.0385,21.0385,0,0,1,72.3458,423.8H96.504a10.9576,10.9576,0,0,1,10.9576,10.9576v24.1582a21.0389,21.0389,0,0,1-6.162,14.8765l-4.396,4.396a31.5577,31.5577,0,0,0,0,44.6294l15.3535,15.3535a21.0387,21.0387,0,0,1,6.1621,14.8765v24.5966A10.5193,10.5193,0,0,1,107.9,588.163H83.3033a21.0382,21.0382,0,0,1-14.8765-6.162L9.2431,522.8172A31.5577,31.5577,0,0,1,9.2431,478.1878Z"/><path class="cls-3" d="M1320.832,478.1878l-48.2262-48.2262a21.0387,21.0387,0,0,0-14.8765-6.1621H1233.571a10.9575,10.9575,0,0,0-10.9575,10.9576v24.1582a21.0384,21.0384,0,0,0,6.162,14.8765l4.3959,4.396a31.5577,31.5577,0,0,1,0,44.6294l-15.3535,15.3535a21.0386,21.0386,0,0,0-6.162,14.8765v24.5966a10.5192,10.5192,0,0,0,10.5192,10.5192h24.5966a21.038,21.038,0,0,0,14.8765-6.162l59.1838-59.1838A31.5577,31.5577,0,0,0,1320.832,478.1878Z"/></g></svg>