<svg xmlns="http://www.w3.org/2000/svg" viewBox="0 0 200 200"><defs><style>.cls-1{fill:none;}.cls-2{fill:#2d8c83;}.cls-3{fill:#5fbf4f;}</style></defs><g id="圖層_1" data-name="圖層 1"><rect class="cls-1" width="200" height="200"/><path class="cls-2" d="M198.4505,81.6337c-.0408-.2394-.0767-.4807-.1192-.72-.0154-.0858-.03-.1722-.0461-.2576-.0182-.1014-.04-.2019-.0581-.3034a20.7527,20.7527,0,0,0-5.0071-9.76l0,0a20.75,20.75,0,0,0-9.76-5.0072c-.1014-.0186-.2019-.04-.3035-.0582-.0854-.0165-.1718-.0305-.2575-.0459-.2391-.0425-.48-.0785-.72-.1193a108.916,108.916,0,0,0-36.6131,0c-.24.0408-.4811.0768-.72.1193-.0858.0154-.172.0294-.2573.0459-.1016.0183-.2022.04-.3035.0582a20.8155,20.8155,0,0,0-16.54,20.3691v22.3225a27.79,27.79,0,0,1-27.79,27.79v0H88.8387a16.6742,16.6742,0,0,0-16.6742,16.6742v21.8741a16.0121,16.0121,0,0,0,12.7229,15.6686c.0782.0142.1555.0307.2334.0447.0658.0127.1323.0235.1983.0354.1839.0326.3695.06.5536.0917a83.7848,83.7848,0,0,0,28.1642,0c.1843-.0314.37-.0591.5538-.0917.0661-.0119.1323-.0227.1981-.0354.0781-.014.1554-.03.2333-.0447a16.0118,16.0118,0,0,0,12.723-15.6686v-10.758a27.79,27.79,0,0,1,27.79-27.79h0l22.3226,0a20.8154,20.8154,0,0,0,20.369-16.54c.0186-.1013.04-.2018.0581-.3034.0166-.0854.0307-.1716.0461-.2574.0425-.2391.0784-.48.1192-.72a108.9178,108.9178,0,0,0,0-36.6134Z"/><path class="cls-3" d="M55.59,8.3609h-6.217c-27.0254-.0515-38.6346-.0823-44.0024,5.2854-.0127.0127-.0234.0271-.036.04h0c-.0127.0126-.0273.0233-.04.036C-.0728,19.09-.0419,30.6992.01,57.7246v6.217A55.5415,55.5415,0,0,0,55.59,119.5223h44.4646a11.1163,11.1163,0,0,0,11.1162-11.1162V63.9415A55.5414,55.5414,0,0,0,55.59,8.3609Z"/></g></svg>