<svg xmlns="http://www.w3.org/2000/svg" viewBox="0 0 600 250"><defs><style>.cls-1{fill:#2d8c83;}.cls-2{fill:#5fbf4f;}.cls-3{fill:#655d5d;}</style></defs><g id="圖層_1" data-name="圖層 1"><path class="cls-1" d="M386.899,64.6871c-.036-.2114-.0676-.4244-.1052-.6354-.0136-.0758-.026-.152-.0406-.2274-.0161-.09-.0349-.1782-.0514-.2678a18.3179,18.3179,0,0,0-4.42-8.6151l0,0a18.3157,18.3157,0,0,0-8.6149-4.42c-.0895-.0164-.1783-.0353-.268-.0514-.0753-.0145-.1515-.0269-.2272-.0405-.211-.0375-.424-.0693-.6355-.1054a96.1457,96.1457,0,0,0-32.3188,0c-.2116.0361-.4247.0679-.6357.1054-.0757.0136-.1518.026-.2271.0405-.09.0161-.1784.035-.2679.0514a18.374,18.374,0,0,0-14.6,17.98V88.2059a24.5307,24.5307,0,0,1-24.5308,24.5308h-9.8123a14.7186,14.7186,0,0,0-14.7185,14.7185v19.3085a14.1339,14.1339,0,0,0,11.2307,13.8308c.069.0126.1372.0271.206.0395.0581.0112.1167.0207.175.0312.1623.0288.3262.0533.4887.081a73.9577,73.9577,0,0,0,24.8608,0c.1627-.0277.3266-.0522.4889-.081.0583-.0105.1167-.02.1748-.0312.069-.0124.1372-.0269.206-.0395a14.1337,14.1337,0,0,0,11.2307-13.8308v-9.4962a24.5308,24.5308,0,0,1,24.5308-24.5308h19.7044a18.3738,18.3738,0,0,0,17.98-14.6c.0165-.0894.0353-.1781.0514-.2678.0146-.0753.027-.1515.0406-.2272.0376-.211.0692-.424.1052-.6356a96.1393,96.1393,0,0,0,0-32.3189Z"/><path class="cls-2" d="M260.7949.0084h-5.4878c-23.8557-.0454-34.1032-.0727-38.8414,4.6655-.0112.0112-.0207.0239-.0318.0352h0c-.0112.0111-.0241.0206-.0352.0318-4.7382,4.7382-4.7109,14.9857-4.6655,38.8414V49.07a49.027,49.027,0,0,0,49.0616,49.0616h39.2493a9.8124,9.8124,0,0,0,9.8124-9.8124V49.07A49.027,49.027,0,0,0,260.7949.0084Z"/><path class="cls-3" d="M509.3677,249.1335H497.2855L479.2674,203.526c-3.6605-1.2658-6.1149-2.778-7.36-4.5714l1.0972-9.0018h25.2687l1.0971,9.0018a12.1543,12.1543,0,0,1-4.7224,3.376l5.932,17.6871a60.8367,60.8367,0,0,1,2.8554,10.866l.2215,1.6174h1.5367a71.1775,71.1775,0,0,1,3.0768-12.2722l5.8232-17.3008a12.552,12.552,0,0,1-5.7141-3.9735l1.1005-9.0018h24.1681l1.0972,9.0018c-1.3187,1.7934-3.7345,3.3056-7.2508,4.5714Z"/><path class="cls-3" d="M444.0649,189.9176a52.7541,52.7541,0,0,1,12.0647-1.5122c3.7133,0,6.8428.1056,9.3958.3516v45.889c3.017,1.16,5.1445,2.4613,6.3822,3.9383l-1.16,8.8262H444.0649l-1.1605-8.8262c1.0831-1.477,3.207-2.778,6.3788-3.9383V202.6822a15.2664,15.2664,0,0,1-6.3788-3.9032Zm13.1091-7.947q-9.6313,0-9.6315-8.65c0-5.8021,3.2106-8.721,9.6315-8.721,6.4947,0,9.7439,2.9189,9.7439,8.721Q466.9179,181.97,457.174,181.9706Z"/><path class="cls-3" d="M410.2583,166.1116a50.4464,50.4464,0,0,1,11.98-1.5122c3.8118,0,7.0715.1056,9.7861.352V234.33a20.89,20.89,0,0,1,6.0447,1.9689v9.1078c-4.3955,2.4613-9.9654,3.7271-16.71,3.7271a6.7811,6.7811,0,0,1-2.1977-2.11,6.1382,6.1382,0,0,1-1.1006-2.8837,20.719,20.719,0,0,1-6.2662,3.5868,22.54,22.54,0,0,1-7.5849,1.4066q-11.873,0-17.2584-6.7164c-3.5164-4.5711-5.2782-11.9554-5.2782-22.2234q0-17.4592,8.1369-24.5091A25.828,25.828,0,0,1,407.4,189.4605a37.7813,37.7813,0,0,1,9.234,1.16V179.1573a16.0371,16.0371,0,0,1-7.4758-4.1491ZM406.52,237.3185a13.4606,13.4606,0,0,0,10.1131-3.9383v-30.98a38.2462,38.2462,0,0,0-9.5645-1.16,7.6925,7.6925,0,0,0-7.3669,4.7471c-1.4629,3.0944-2.1977,7.7363-2.1977,13.9951q0,9.2306,2.1977,13.2921A7.2362,7.2362,0,0,0,406.52,237.3185Z"/><path class="cls-3" d="M294.1471,189.6361a49.1953,49.1953,0,0,1,10.827-1.3711q4.81,0,7.9786.2108v5.8021a20.3812,20.3812,0,0,1,7.2192-3.9383,26.0059,26.0059,0,0,1,8.7453-1.6174c7.1418,0,12.135,1.7582,14.98,5.3093q4.3725,5.3274,4.3744,18.3911v22.1882a14.9042,14.9042,0,0,1,6.013,3.9031l-1.0936,8.8966H328.0416l-1.0936-8.8966q1.5348-2.1621,6.013-3.9031V211.7191q0-6.2236-1.9656-8.3338c-1.2413-1.4419-3.4988-2.18-6.78-2.18a16.3392,16.3392,0,0,0-9.8389,3.6924v29.7133a14.9046,14.9046,0,0,1,6.0131,3.9031l-1.0936,8.8966H294.1471l-1.0936-8.8966q1.5349-2.1621,6.0165-3.9031v-32.14a13.7208,13.7208,0,0,1-6.0165-3.9384Z"/><path class="cls-3" d="M265.8894,249.1335q-12.949,0-19.53-7.3491-6.4771-7.3319-6.4772-21.3447a41.6377,41.6377,0,0,1,2.2681-14.5575,22.2411,22.2411,0,0,1,6.15-9.4945,26.2994,26.2994,0,0,1,17.5889-6.4349q10.0375,0,15.3244,5.4854c3.5973,3.622,5.3977,10.092,5.3977,19.5161,0,5.4854-2.5564,8.2634-7.6622,8.2634H255.53c.2883,4.8175,1.4381,8.1931,3.453,10.1977,2.0887,1.9689,5.359,2.9888,9.8213,2.9888a26.9926,26.9926,0,0,0,7.0152-.9143,20.1384,20.1384,0,0,0,4.8562-1.8638l1.5084-.9143,3.2387,9.1782a27.295,27.295,0,0,1-1.941,2.0745c-.7913.7735-2.88,1.8286-6.2592,3.2A30.7981,30.7981,0,0,1,265.8894,249.1335Zm6.8008-36.1486a29.3718,29.3718,0,0,0,.2144-3.8679A8.4938,8.4938,0,0,0,271.178,204.3q-1.7247-2.6373-6.0446-2.6373a7.9267,7.9267,0,0,0-6.4737,2.7428q-2.268,2.7429-3.02,9.2834Z"/><path class="cls-3" d="M212.7181,249.1335q-12.949,0-19.5336-7.3491-6.4718-7.3319-6.4736-21.3447a41.7234,41.7234,0,0,1,2.2646-14.5575,22.2787,22.2787,0,0,1,6.1536-9.4945,26.293,26.293,0,0,1,17.589-6.4349q10.0376,0,15.3244,5.4854c3.5973,3.622,5.3941,10.092,5.3941,19.5161,0,5.4854-2.5528,8.2634-7.6621,8.2634H202.3588c.2884,4.8175,1.4382,8.1931,3.4531,10.1977,2.0852,1.9689,5.3589,2.9888,9.8177,2.9888a26.9717,26.9717,0,0,0,7.0152-.9143,20.0149,20.0149,0,0,0,4.8562-1.8638l1.512-.9143,3.2387,9.1782a26.7666,26.7666,0,0,1-1.9446,2.0745c-.7912.7735-2.8764,1.8286-6.2592,3.2A30.7784,30.7784,0,0,1,212.7181,249.1335Zm6.7972-36.1486a29.3031,29.3031,0,0,0,.218-3.8679,8.4946,8.4946,0,0,0-1.7266-4.8174q-1.73-2.6373-6.0447-2.6373a7.9172,7.9172,0,0,0-6.4736,2.7428q-2.2681,2.7429-3.0241,9.2834Z"/><path class="cls-3" d="M176.64,203.8424q-8.4711,0-11.7026,3.3756v26.4433q9.0249,1.7411,12.3707,4.8526l-1.1148,8.8966H144.3208l-1.1146-8.8966q1.5612-2.1621,6.129-3.9031v-32.14a14.015,14.015,0,0,1-6.129-3.9384l1.1146-8.8965a51.0619,51.0619,0,0,1,11.0309-1.3711q4.9053,0,8.1369.2108v7.2792a19.2973,19.2973,0,0,1,6.5757-5.0639,15.7506,15.7506,0,0,1,7.2438-2.0745,12.1711,12.1711,0,0,1,4.5677.5627l-.334,15.0147A34.7332,34.7332,0,0,0,176.64,203.8424Z"/><path class="cls-3" d="M107.6659,180.9507a13.4047,13.4047,0,0,0-11.6252,5.9781q-4.0612,6.013-4.0578,20.8167,0,28.3773,14.913,28.3775a26.772,26.772,0,0,0,10.5281-1.9341v-13.01c-3.3618-1.1255-5.665-2.5669-6.9063-4.2551l1.0937-9.0722H137.274l1.0971,9.0722a13.9348,13.9348,0,0,1-5.155,3.5868v21.2391a33.1308,33.1308,0,0,1-11.6252,5.7669,65.033,65.033,0,0,1-15.68,1.6174c-10.4578,0-18.134-3.13-23.0323-9.3185q-7.3476-9.441-7.3458-30.4516c0-14.1008,2.887-24.5448,8.6609-31.2608q8.7769-10.1274,23.9079-10.1272,15.2436,0,24.896,7.2435v2.6373a49.0041,49.0041,0,0,1-.7665,6.6813,29.2763,29.2763,0,0,1-2.1943,7.7011H119.9487c-1.0971-2.1454-1.8285-5.345-2.1942-9.5649A29.7416,29.7416,0,0,0,107.6659,180.9507Z"/><path class="cls-3" d="M4.1385,200.76l21.5929-21.5929a9.42,9.42,0,0,1,6.6608-2.759H43.2089a4.9061,4.9061,0,0,1,4.9061,4.9061V192.13a9.42,9.42,0,0,1-2.759,6.6608L43.3878,200.76a14.13,14.13,0,0,0,0,19.9825l6.8744,6.8744a9.42,9.42,0,0,1,2.759,6.6608V245.29a4.71,4.71,0,0,1-4.71,4.71H37.2984a9.42,9.42,0,0,1-6.6608-2.759L4.1385,220.742A14.13,14.13,0,0,1,4.1385,200.76Z"/><path class="cls-3" d="M595.8615,200.76l-21.5929-21.5929a9.42,9.42,0,0,0-6.6608-2.759H556.7911a4.9061,4.9061,0,0,0-4.9061,4.9061V192.13a9.42,9.42,0,0,0,2.759,6.6608l1.9682,1.9683a14.13,14.13,0,0,1,0,19.9825l-6.8744,6.8744a9.42,9.42,0,0,0-2.759,6.6608V245.29a4.71,4.71,0,0,0,4.71,4.71h11.0129a9.42,9.42,0,0,0,6.6608-2.759l26.4991-26.499A14.13,14.13,0,0,0,595.8615,200.76Z"/></g></svg>