<svg width="499" height="236" viewBox="0 0 499 236" fill="none" xmlns="http://www.w3.org/2000/svg">
<path d="M336.174 64.6872C336.138 64.4758 336.106 64.2628 336.069 64.0518C336.055 63.976 336.043 63.8998 336.028 63.8244C336.012 63.7344 335.993 63.6462 335.977 63.5566C335.303 60.3405 333.776 57.3648 331.557 54.9415C329.134 52.7221 326.158 51.1954 322.942 50.5215C322.852 50.5051 322.764 50.4862 322.674 50.4701C322.599 50.4556 322.522 50.4432 322.447 50.4296C322.236 50.3921 322.023 50.3603 321.811 50.3242C311.116 48.5006 300.188 48.5006 289.492 50.3242C289.281 50.3603 289.068 50.3921 288.857 50.4296C288.781 50.4432 288.705 50.4556 288.63 50.4701C288.54 50.4862 288.451 50.5051 288.362 50.5215C284.234 51.3878 280.531 53.6475 277.872 56.9215C275.214 60.1954 273.762 64.2842 273.762 68.5015V88.206C273.762 91.4275 273.127 94.6174 271.895 97.5936C270.662 100.57 268.855 103.274 266.577 105.552C264.299 107.83 261.595 109.637 258.619 110.87C255.642 112.102 252.452 112.737 249.231 112.737H239.419C235.515 112.737 231.771 114.288 229.011 117.048C226.251 119.808 224.7 123.552 224.7 127.455V146.764C224.701 150.008 225.817 153.153 227.862 155.672C229.907 158.19 232.756 159.928 235.931 160.595C236 160.607 236.068 160.622 236.137 160.634C236.195 160.645 236.254 160.655 236.312 160.665C236.474 160.694 236.638 160.719 236.801 160.746C245.028 162.149 253.434 162.149 261.661 160.746C261.824 160.719 261.988 160.694 262.15 160.665C262.209 160.655 262.267 160.645 262.325 160.634C262.394 160.622 262.462 160.607 262.531 160.595C265.706 159.928 268.555 158.19 270.6 155.672C272.645 153.153 273.761 150.008 273.762 146.764V137.268C273.762 130.762 276.346 124.522 280.947 119.922C285.547 115.321 291.787 112.737 298.293 112.737H317.997C322.214 112.736 326.303 111.285 329.577 108.627C332.851 105.968 335.111 102.264 335.977 98.1368C335.993 98.0474 336.012 97.9587 336.028 97.869C336.043 97.7937 336.055 97.7175 336.069 97.6418C336.107 97.4308 336.138 97.2178 336.174 97.0062C337.998 86.3105 337.998 75.383 336.174 64.6872Z" fill="#2D8C83"/>
<path d="M210.07 0.0083799H204.582C180.727 -0.0370201 170.479 -0.0643201 165.741 4.67388C165.73 4.68508 165.72 4.69778 165.709 4.70908C165.698 4.72018 165.685 4.72968 165.674 4.74088C160.936 9.47908 160.963 19.7266 161.008 43.5823V49.07C161.004 55.5141 162.27 61.8959 164.734 67.8504C167.198 73.8049 170.811 79.2152 175.368 83.7719C179.925 88.3286 185.335 91.9423 191.29 94.4062C197.244 96.8702 203.626 98.1361 210.07 98.1316H249.319C251.922 98.1316 254.418 97.0978 256.258 95.2576C258.098 93.4174 259.132 90.9216 259.132 88.3192V49.07C259.136 42.6258 257.87 36.244 255.406 30.2895C252.942 24.3351 249.329 18.9247 244.772 14.368C240.215 9.81135 234.805 6.19767 228.851 3.73371C222.896 1.26974 216.514 0.00383044 210.07 0.0083799Z" fill="#5FBF4F"/>
<path d="M408.415 229.934H398.962L384.866 194.253C382.002 193.263 380.082 192.08 379.107 190.676L379.966 183.634H399.735L400.593 190.676C399.593 191.842 398.326 192.749 396.899 193.318L401.54 207.155C402.545 209.914 403.293 212.76 403.774 215.656L403.947 216.922H405.149C405.665 213.656 406.471 210.443 407.556 207.321L412.112 193.785C410.359 193.191 408.809 192.113 407.642 190.676L408.503 183.634H427.411L428.269 190.676C427.238 192.08 425.348 193.263 422.597 194.253L408.415 229.934Z" fill="#655D5D"/>
<path d="M357.324 183.606C360.414 182.85 363.581 182.453 366.763 182.423C369.668 182.423 372.116 182.506 374.114 182.698V218.6C376.474 219.508 378.139 220.526 379.107 221.681L378.199 228.586H357.324L356.416 221.681C357.263 220.526 358.925 219.508 361.407 218.6V193.593C359.516 193.004 357.801 191.955 356.416 190.539L357.324 183.606ZM367.58 177.389C362.557 177.389 360.045 175.133 360.045 170.622C360.045 166.082 362.557 163.799 367.58 163.799C372.661 163.799 375.203 166.082 375.203 170.622C375.203 175.133 372.662 177.389 367.58 177.389Z" fill="#655D5D"/>
<path d="M330.875 164.981C333.94 164.213 337.087 163.816 340.247 163.798C343.23 163.798 345.78 163.881 347.904 164.074V218.353C349.549 218.622 351.144 219.141 352.633 219.893V227.019C349.194 228.944 344.836 229.935 339.559 229.935C338.869 229.522 338.281 228.957 337.84 228.284C337.366 227.617 337.069 226.841 336.979 226.028C335.522 227.243 333.862 228.193 332.077 228.834C330.176 229.539 328.169 229.911 326.142 229.934C319.95 229.934 315.449 228.183 312.64 224.68C309.889 221.104 308.511 215.326 308.511 207.293C308.511 198.187 310.633 191.795 314.877 188.118C318.697 184.837 323.605 183.1 328.638 183.249C331.075 183.252 333.501 183.557 335.863 184.156V175.188C333.655 174.655 331.634 173.533 330.014 171.942L330.875 164.981ZM327.95 220.691C329.41 220.754 330.868 220.513 332.23 219.983C333.592 219.452 334.829 218.644 335.862 217.61V193.372C333.416 192.755 330.902 192.45 328.379 192.465C327.155 192.423 325.947 192.757 324.917 193.421C323.887 194.084 323.084 195.046 322.616 196.179C321.471 198.599 320.896 202.231 320.896 207.128C320.896 211.942 321.469 215.409 322.616 217.527C323.1 218.516 323.863 219.342 324.811 219.904C325.758 220.466 326.849 220.74 327.95 220.691Z" fill="#655D5D"/>
<path d="M240.035 183.386C242.81 182.716 245.651 182.356 248.506 182.313C251.015 182.313 253.095 182.368 254.748 182.478V187.018C256.402 185.618 258.324 184.569 260.396 183.937C262.587 183.125 264.902 182.697 267.238 182.671C272.825 182.671 276.732 184.047 278.958 186.825C281.238 189.604 282.379 194.4 282.38 201.213V218.573C284.173 219.193 285.788 220.241 287.084 221.626L286.229 228.587H266.553L265.697 221.626C266.498 220.498 268.066 219.481 270.402 218.573V200.663C270.402 197.417 269.889 195.244 268.864 194.143C267.893 193.015 266.127 192.437 263.559 192.437C260.746 192.526 258.04 193.542 255.862 195.326V218.573C257.655 219.193 259.27 220.241 260.566 221.626L259.711 228.587H240.035L239.18 221.626C239.98 220.499 241.549 219.481 243.887 218.573V193.428C242.072 192.837 240.447 191.774 239.18 190.346L240.035 183.386Z" fill="#655D5D"/>
<path d="M217.927 229.934C211.173 229.934 206.08 228.018 202.648 224.185C199.269 220.361 197.58 214.794 197.58 207.486C197.49 203.614 198.091 199.757 199.355 196.096C200.291 193.247 201.949 190.688 204.166 188.668C207.98 185.358 212.878 183.567 217.927 183.634C223.162 183.634 227.159 185.064 229.916 187.925C232.731 190.759 234.139 195.821 234.139 203.194C234.139 207.486 232.139 209.659 228.144 209.659H209.822C210.048 213.428 210.947 216.069 212.524 217.637C214.158 219.178 216.716 219.976 220.208 219.976C222.061 219.979 223.906 219.738 225.696 219.26C227.02 218.941 228.297 218.45 229.495 217.802L230.675 217.087L233.209 224.267C232.732 224.834 232.225 225.376 231.691 225.89C231.072 226.496 229.437 227.321 226.794 228.394C223.961 229.46 220.953 229.982 217.927 229.934ZM223.248 201.653C223.37 200.649 223.426 199.638 223.416 198.627C223.363 197.262 222.892 195.946 222.065 194.859C221.165 193.483 219.589 192.795 217.336 192.795C216.383 192.739 215.431 192.904 214.552 193.276C213.674 193.648 212.893 194.218 212.271 194.941C211.088 196.372 210.3 198.793 209.908 202.204L223.248 201.653Z" fill="#655D5D"/>
<path d="M176.327 229.935C169.574 229.935 164.479 228.018 161.045 224.185C157.67 220.361 155.981 214.794 155.98 207.486C155.891 203.614 156.491 199.758 157.752 196.096C158.691 193.247 160.349 190.689 162.566 188.668C166.38 185.358 171.278 183.566 176.327 183.634C181.563 183.634 185.559 185.064 188.317 187.925C191.131 190.759 192.537 195.821 192.537 203.194C192.537 207.486 190.54 209.659 186.542 209.659H168.223C168.448 213.428 169.348 216.069 170.924 217.637C172.556 219.178 175.117 219.976 178.605 219.976C180.458 219.979 182.304 219.739 184.094 219.26C185.418 218.942 186.695 218.451 187.893 217.802L189.076 217.087L191.61 224.267C191.132 224.835 190.624 225.377 190.088 225.89C189.469 226.496 187.838 227.321 185.191 228.394C182.36 229.46 179.353 229.982 176.327 229.935ZM181.645 201.653C181.769 200.649 181.826 199.639 181.816 198.627C181.764 197.262 181.292 195.946 180.465 194.858C179.563 193.483 177.986 192.795 175.736 192.795C174.783 192.738 173.831 192.903 172.952 193.275C172.074 193.647 171.293 194.217 170.671 194.941C169.488 196.371 168.7 198.792 168.305 202.204L181.645 201.653Z" fill="#655D5D"/>
<path d="M148.102 194.501C143.683 194.501 140.631 195.381 138.946 197.141V217.83C143.653 218.738 146.879 220.003 148.624 221.626L147.752 228.586H122.816L121.944 221.626C122.759 220.498 124.357 219.481 126.739 218.572V193.427C124.897 192.841 123.243 191.778 121.944 190.346L122.816 183.386C125.645 182.715 128.539 182.356 131.446 182.313C134.005 182.313 136.127 182.368 137.812 182.478V188.173C139.22 186.495 140.975 185.143 142.957 184.211C144.687 183.22 146.632 182.663 148.624 182.588C149.833 182.506 151.045 182.656 152.198 183.029L151.937 194.775C150.666 194.593 149.385 194.501 148.102 194.501Z" fill="#655D5D"/>
<path d="M94.1396 176.591C92.3505 176.529 90.5754 176.927 88.9833 177.746C87.3913 178.564 86.0353 179.777 85.0445 181.268C82.9263 184.404 81.8681 189.833 81.8699 197.554C81.8699 212.355 85.759 219.755 93.5372 219.755C96.3567 219.811 99.1582 219.296 101.774 218.242V208.064C99.1438 207.183 97.3419 206.056 96.3708 204.735L97.2264 197.637H117.304L118.162 204.735C117.049 205.965 115.669 206.925 114.129 207.541V224.158C111.424 226.246 108.333 227.78 105.034 228.669C101.011 229.587 96.8919 230.012 92.7666 229.935C84.5848 229.935 78.5793 227.486 74.7471 222.644C70.9147 217.72 68.9991 209.779 69 198.82C69 187.788 71.2587 179.617 75.7759 174.363C80.3537 169.081 86.5886 166.44 94.4805 166.44C102.431 166.44 108.924 168.329 113.958 172.107V174.17C113.878 175.924 113.678 177.671 113.358 179.397C113.065 181.475 112.487 183.502 111.642 185.422H103.749C102.891 183.744 102.319 181.241 102.033 177.939C99.4993 177.037 96.8288 176.581 94.1396 176.591Z" fill="#655D5D"/>
<path d="M4.13816 186.15L25.7311 164.557C27.4976 162.791 29.8936 161.798 32.3919 161.798H43.2086C44.5097 161.798 45.7576 162.315 46.6777 163.235C47.5978 164.155 48.1147 165.403 48.1147 166.704V177.52C48.1146 180.019 47.1222 182.414 45.3557 184.181L43.3875 186.15C40.7377 188.8 39.249 192.394 39.249 196.141C39.249 199.889 40.7377 203.483 43.3875 206.133L50.2619 213.007C52.0284 214.774 53.0208 217.17 53.0209 219.668V230.68C53.0209 231.299 52.899 231.911 52.6623 232.483C52.4256 233.054 52.0787 233.573 51.6413 234.011C51.204 234.448 50.6847 234.795 50.1133 235.032C49.5419 235.268 48.9294 235.39 48.3109 235.39H37.2981C34.7998 235.39 32.4038 234.398 30.6373 232.631L4.13816 206.132C1.48853 203.482 0 199.889 0 196.141C0 192.394 1.48853 188.8 4.13816 186.15Z" fill="#655D5D"/>
<path d="M493.903 186.15L472.31 164.557C470.544 162.791 468.148 161.798 465.649 161.798H454.833C453.532 161.798 452.284 162.315 451.364 163.235C450.444 164.155 449.927 165.403 449.927 166.704V177.52C449.927 180.019 450.919 182.414 452.686 184.181L454.654 186.149C457.304 188.799 458.792 192.393 458.792 196.141C458.792 199.888 457.304 203.482 454.654 206.132L447.779 213.006C446.013 214.773 445.021 217.169 445.021 219.667V230.68C445.021 231.929 445.517 233.127 446.4 234.011C447.283 234.894 448.481 235.39 449.73 235.39H460.743C463.242 235.39 465.638 234.398 467.404 232.631L493.903 206.132C496.553 203.482 498.041 199.889 498.041 196.141C498.041 192.394 496.553 188.8 493.903 186.15Z" fill="#655D5D"/>
</svg>
